<svg id="Layer_1" data-name="Layer 1" xmlns="http://www.w3.org/2000/svg" viewBox="0 0 75 75"><defs><style>.cls-1{fill:#fff;}</style></defs><title>code_icon</title><path d="M37.5,75A37.5,37.5,0,1,0,0,37.5,37.5,37.5,0,0,0,37.5,75Z"/><polygon class="cls-1" points="10.26 36.18 28.5 27.71 28.5 31.73 14.7 37.78 14.7 37.85 28.5 43.9 28.5 47.93 10.26 39.45 10.26 36.18"/><polygon class="cls-1" points="39.45 21.89 43.28 21.89 35.15 49.45 31.32 49.45 39.45 21.89"/><polygon class="cls-1" points="45.49 43.9 59.59 37.85 59.59 37.77 45.49 31.73 45.49 27.71 63.73 36.07 63.73 39.56 45.49 47.93 45.49 43.9"/></svg>