<svg id="Layer_1" data-name="Layer 1" xmlns="http://www.w3.org/2000/svg" viewBox="0 0 75 75"><defs><style>.cls-1{fill:#fff;}</style></defs><title>design_icon</title><path d="M37.5,75A37.5,37.5,0,1,0,0,37.5,37.5,37.5,0,0,0,37.5,75Z"/><path class="cls-1" d="M47.83,63.67H44.26V28.77h3.57v34.9ZM27.17,28.77H30.3v34.9H27.17V28.77ZM37.52,10.82l2.79,4.54a9.22,9.22,0,0,1-5.57,0ZM28.46,25.55L33,18.19a12.24,12.24,0,0,0,4.54.88,12,12,0,0,0,4.53-.87l4.51,7.35H28.46Zm5.05,3.22h7.54v34.9H33.51V28.77ZM51,63.41V27.16a1.54,1.54,0,0,0-.25-0.82h0L38.89,6.91a1.61,1.61,0,0,0-2.74,0L24.2,26.34h0a1.55,1.55,0,0,0-.26.82V66.63c0,0.51,26.56,0,27.09,0"/></svg>