<svg id="Layer_1" data-name="Layer 1" xmlns="http://www.w3.org/2000/svg" viewBox="0 0 45.5 43"><defs><style>.cls-1{fill:#fff;fill-rule:evenodd;}</style></defs><title>git-white</title><path class="cls-1" d="M23.59,2.47a19.48,19.48,0,0,0-6.16,38,1,1,0,0,0,1.33-.94c0-.46,0-1.69,0-3.31-5.42,1.18-6.56-2.61-6.56-2.61A5.16,5.16,0,0,0,10,30.72c-1.77-1.21.13-1.18,0.13-1.18a4.09,4.09,0,0,1,3,2,4.15,4.15,0,0,0,5.67,1.62A4.16,4.16,0,0,1,20,30.56c-4.33-.49-8.87-2.16-8.87-9.63a7.53,7.53,0,0,1,2-5.23,7,7,0,0,1,.19-5.16s1.64-.52,5.36,2a18.47,18.47,0,0,1,9.75,0c3.72-2.52,5.35-2,5.35-2A7,7,0,0,1,34,15.7a7.52,7.52,0,0,1,2,5.23c0,7.48-4.55,9.13-8.89,9.61a4.65,4.65,0,0,1,1.32,3.61c0,2.6,0,4.71,0,5.34a1,1,0,0,0,1.34.94A19.48,19.48,0,0,0,23.59,2.47Z"/></svg>