<svg id="Layer_1" data-name="Layer 1" xmlns="http://www.w3.org/2000/svg" viewBox="0 0 44 42.5"><defs><style>.cls-1{fill:#fff;}.cls-2{fill:#1cbbe6;}</style></defs><title>pint-white</title><path class="cls-1" d="M41.18,21.18a19,19,0,1,1-19-19,19,19,0,0,1,19,19"/><path class="cls-2" d="M22.16,4a17.22,17.22,0,0,0-6.27,33.25,16.5,16.5,0,0,1,.06-4.94c0.31-1.34,2-8.56,2-8.56a6.22,6.22,0,0,1-.52-2.56c0-2.39,1.39-4.18,3.12-4.18a2.16,2.16,0,0,1,2.18,2.43c0,1.48-.94,3.69-1.43,5.73a2.5,2.5,0,0,0,2.55,3.11c3.06,0,5.41-3.23,5.41-7.88a6.8,6.8,0,0,0-7.19-7,7.45,7.45,0,0,0-7.77,7.47,6.7,6.7,0,0,0,1.28,3.93,0.51,0.51,0,0,1,.12.49c-0.13.54-.42,1.71-0.48,2s-0.25.38-.58,0.23c-2.15-1-3.49-4.14-3.49-6.67,0-5.43,3.95-10.42,11.38-10.42,6,0,10.61,4.26,10.61,9.94,0,5.93-3.74,10.71-8.93,10.71a4.61,4.61,0,0,1-3.95-2L19.2,33.12a19.24,19.24,0,0,1-2.14,4.51A17.22,17.22,0,1,0,22.16,4Z"/></svg>