<svg id="Layer_1" data-name="Layer 1" xmlns="http://www.w3.org/2000/svg" viewBox="0 0 75 75"><defs><style>.cls-1{fill:#fff;}</style></defs><title>ruby_icon</title><path d="M37.5,75A37.5,37.5,0,1,0,0,37.5,37.5,37.5,0,0,0,37.5,75Z"/><path class="cls-1" d="M55.33,28.32l2.73-6.56,4.25,6.56h-7ZM53.82,32h8.13L44.4,54.58ZM21.44,32L32.21,56.66,13.05,32h8.39Zm1.89-4.75-3.27-7.51H32.44Zm19.28-7.51H55l-3.12,7.5ZM27.69,28.32l9.82-8.1,10,8.1H27.69ZM49.88,32l-12,28.75L25.4,32H49.88ZM17,21.7l2.88,6.62H12.69Zm50.42,8,0-.09a1.82,1.82,0,0,0-.19-0.43v0L59.23,16.89h0A2.06,2.06,0,0,0,59,16.57l-0.09-.07a1.89,1.89,0,0,0-.24-0.17l-0.13-.07-0.1-.05-0.16-.05-0.13,0a1.94,1.94,0,0,0-.43-0.05H17.29a1.8,1.8,0,0,0-.41.05l-0.11,0-0.19.06-0.08,0-0.12.07-0.23.16-0.1.08a2.09,2.09,0,0,0-.24.29l0,0h0L7.83,29.15v0a1.75,1.75,0,0,0-.19.43l0,0.09a1.91,1.91,0,0,0-.06.43s0,0,0,0a0.79,0.79,0,0,0,0,.09,2,2,0,0,0,.08.42l0,0.09a1.77,1.77,0,0,0,.23.43l0,0L36.07,67.57l0.06,0.06a1.48,1.48,0,0,0,.18.18l0.11,0.09L36.61,68l0.14,0.07,0.05,0L37,68.19l0.12,0a1.94,1.94,0,0,0,.38,0h0A1.74,1.74,0,0,0,38,68.2l0.14,0a1.92,1.92,0,0,0,.3-0.14l0.13-.08a1.89,1.89,0,0,0,.27-0.24l0.09-.09,0,0L67.08,31.25l0,0a1.77,1.77,0,0,0,.23-0.43l0-.09a1.78,1.78,0,0,0,.08-0.42s0-.06,0-0.09,0,0,0,0A1.74,1.74,0,0,0,67.4,29.7Z"/></svg>