<svg id="Layer_1" data-name="Layer 1" xmlns="http://www.w3.org/2000/svg" viewBox="0 0 44.75 36.37"><defs><style>.cls-1{fill:#fff;}</style></defs><title>twitter-white</title><path class="cls-1" d="M40.72,6.6a14.76,14.76,0,0,1-4.24,1.16,7.41,7.41,0,0,0,3.25-4.09A14.79,14.79,0,0,1,35,5.47a7.39,7.39,0,0,0-12.59,6.74A21,21,0,0,1,7.22,4.49a7.39,7.39,0,0,0,2.29,9.86,7.36,7.36,0,0,1-3.35-.92s0,0.06,0,.09a7.39,7.39,0,0,0,5.92,7.24,7.4,7.4,0,0,1-3.34.13A7.39,7.39,0,0,0,15.65,26a14.82,14.82,0,0,1-9.17,3.16,15,15,0,0,1-1.76-.1A20.91,20.91,0,0,0,16,32.4c13.59,0,21-11.25,21-21q0-.48,0-1A15,15,0,0,0,40.72,6.6Z"/></svg>